<svg width="300" height="300" viewBox="0 0 300 300" fill="none" xmlns="http://www.w3.org/2000/svg">
<g clip-path="url(#clip0_168_2)">
<path d="M91.8438 89.6094C91.5312 90.0781 91.2188 91.6406 90.9062 94.2969C90.75 96.9531 90.5938 100.781 90.4375 105.781C90.4375 110.625 90.4375 116.797 90.4375 124.297L90.6719 211.25C90.6719 222.188 89.1094 231.484 85.9844 239.141C83.0156 246.797 78.7188 252.578 73.0938 256.484C67.4688 260.547 60.75 262.578 52.9375 262.578C45.75 262.578 39.5 260.859 34.1875 257.422C28.875 254.141 26.2188 250.312 26.2188 245.938C26.2188 243.281 27.0781 241.172 28.7969 239.609C30.3594 238.047 32.5469 237.266 35.3594 237.266C37.5469 237.266 39.6562 237.734 41.6875 238.672C43.5625 239.609 45.5156 241.172 47.5469 243.359L59.7344 255.547L51.5312 252.734C56.0625 253.516 59.6562 252.891 62.3125 250.859C65.125 248.984 67.1562 245.625 68.4062 240.781C69.8125 235.938 70.5156 229.453 70.5156 221.328V124.297C70.5156 117.422 70.4375 111.562 70.2812 106.719C70.2812 101.875 70.2031 98.0469 70.0469 95.2344C70.0469 92.2656 69.8906 90.3906 69.5781 89.6094L53.6406 86.3281L54.1094 77.4219H105.672L106.141 86.3281L91.8438 89.6094ZM202 215L201.531 206.094L215.594 203.75C214.5 202.031 213.172 200.234 211.609 198.359C210.203 196.328 208.484 194.219 206.453 192.031L170.594 151.25H160.75V142.578L173.172 139.297L221.453 89.375L207.156 86.3281L207.625 77.4219H252.859L253.328 86.7969L239.734 89.1406L183.25 142.578L183.953 135.547L228.719 185.469C231.375 188.281 233.641 190.859 235.516 193.203C237.547 195.391 239.344 197.344 240.906 199.062C242.469 200.625 243.797 201.953 244.891 203.047L256.609 205.859V215H202ZM128.875 215L128.172 206.094L142.469 202.812C142.781 201.719 143.016 198.281 143.172 192.5C143.328 186.719 143.406 178.672 143.406 168.359V124.297C143.406 117.266 143.328 111.328 143.172 106.484C143.172 101.484 143.094 97.5781 142.938 94.7656C142.938 91.9531 142.781 90.2344 142.469 89.6094L127.938 86.3281L128.641 77.4219H178.562L179.031 86.3281L164.734 89.6094C164.422 90.0781 164.109 91.6406 163.797 94.2969C163.641 96.9531 163.484 100.781 163.328 105.781C163.328 110.625 163.328 116.797 163.328 124.297V168.359C163.328 178.672 163.406 186.719 163.562 192.5C163.875 198.281 164.109 201.719 164.266 202.812L178.562 206.094L177.859 215H128.875Z" fill="#003314"/>
</g>
<defs>
<clipPath id="clip0_168_2">
<rect width="300" height="300" fill="white"/>
</clipPath>
</defs>
</svg>
