<svg width="300" height="300" viewBox="0 0 300 300" fill="none" xmlns="http://www.w3.org/2000/svg">
<g clip-path="url(#clip0_168_4)">
<path d="M101.996 229.12C101.569 229.333 100.982 229.493 100.236 229.6C99.5956 229.813 98.9023 229.867 98.1556 229.76C95.809 229.547 93.409 229.493 90.9556 229.6C88.5023 229.707 86.049 229.867 83.5956 230.08C79.4356 230.187 75.8623 229.28 72.8756 227.36C69.889 225.547 67.169 223.253 64.7156 220.48C62.7956 218.347 61.249 216 60.0756 213.44C59.009 210.773 57.9956 208.107 57.0356 205.44C56.7156 204.587 56.609 203.627 56.7156 202.56C56.8223 201.493 56.8756 200.32 56.8756 199.04C63.169 198.827 69.3556 198.613 75.4356 198.4C81.5156 198.187 87.5423 198.027 93.5156 197.92C93.409 197.173 93.249 196.373 93.0356 195.52C92.929 194.667 92.8756 193.813 92.8756 192.96C92.8756 186.667 92.8756 180.373 92.8756 174.08C92.9823 167.787 92.9823 161.493 92.8756 155.2C92.769 150.72 92.609 146.293 92.3956 141.92C92.1823 137.44 92.0223 133.013 91.9156 128.64C91.809 122.987 91.7556 117.44 91.7556 112C91.8623 106.56 91.9156 101.067 91.9156 95.52V90.4H120.556C120.662 90.9333 120.716 91.4667 120.716 92C120.822 92.4267 120.876 92.9067 120.876 93.44V193.92C120.876 195.52 120.822 197.067 120.716 198.56C120.716 200.053 120.769 201.547 120.876 203.04C121.302 207.093 120.342 210.88 117.996 214.4C115.862 217.387 113.516 220.213 110.956 222.88C108.502 225.547 105.516 227.627 101.996 229.12ZM151.396 224.48C152.462 223.2 152.889 221.867 152.676 220.48C152.569 219.2 152.729 217.973 153.156 216.8C153.262 216.587 153.262 216.32 153.156 216C153.156 215.573 153.049 215.307 152.836 215.2C151.662 213.28 151.236 211.413 151.556 209.6C151.876 207.68 152.089 205.867 152.196 204.16C152.302 202.667 152.516 201.173 152.836 199.68C153.262 198.08 153.582 196.427 153.796 194.72C153.049 194.4 152.676 193.813 152.676 192.96C152.676 192.107 152.729 191.253 152.836 190.4C153.156 185.6 153.476 180.96 153.796 176.48C153.902 168.907 154.009 161.44 154.116 154.08C154.222 146.613 154.329 139.147 154.436 131.68C154.542 127.2 154.756 122.773 155.076 118.4C155.396 114.027 155.609 109.6 155.716 105.12C155.716 103.627 155.662 102.133 155.556 100.64C155.556 99.04 155.502 97.4933 155.396 96C155.396 95.36 155.396 94.72 155.396 94.08C155.502 93.3333 155.609 92.5333 155.716 91.68H169.956C173.049 91.68 176.036 91.68 178.916 91.68C181.796 91.5733 184.676 91.4667 187.556 91.36C190.436 91.36 191.556 92.5867 190.916 95.04C190.702 95.8933 190.596 96.6933 190.596 97.44C190.702 98.08 190.809 98.8267 190.916 99.68C191.022 101.067 191.022 102.507 190.916 104C190.916 105.493 190.916 106.987 190.916 108.48C190.702 111.573 190.489 114.72 190.276 117.92C190.062 121.12 189.902 124.373 189.796 127.68C189.689 129.387 189.529 131.04 189.316 132.64C189.102 134.24 189.156 135.893 189.476 137.6C189.689 138.133 189.636 138.773 189.316 139.52C188.996 140.16 188.836 140.8 188.836 141.44C188.622 142.72 188.836 143.947 189.476 145.12C191.609 139.787 194.596 135.36 198.436 131.84C202.276 128.213 206.489 124.907 211.076 121.92C215.876 118.827 220.889 116.907 226.116 116.16C231.449 115.307 236.729 114.613 241.956 114.08C242.169 114.613 242.329 116.96 242.436 121.12C242.649 125.173 242.756 130.453 242.756 136.96C242.862 143.36 242.916 150.4 242.916 158.08C242.916 165.653 242.916 173.28 242.916 180.96C242.916 188.533 242.862 195.573 242.756 202.08C242.649 208.587 242.542 213.92 242.436 218.08C242.436 222.24 242.382 224.64 242.276 225.28C239.502 225.28 236.782 225.28 234.116 225.28C231.556 225.387 228.942 225.333 226.276 225.12C225.529 224.907 224.569 224.64 223.396 224.32C222.329 224 221.636 223.2 221.316 221.92C221.102 221.067 220.676 220.48 220.036 220.16C219.502 219.947 218.916 219.787 218.276 219.68C215.396 219.147 212.889 218.08 210.756 216.48C208.729 214.773 206.649 213.173 204.516 211.68C203.129 210.507 201.796 209.333 200.516 208.16C199.236 206.987 198.009 205.867 196.836 204.8C195.129 202.88 193.689 200.853 192.516 198.72C191.449 196.48 190.436 194.187 189.476 191.84C189.369 191.52 189.209 191.2 188.996 190.88C188.889 190.453 188.569 190.027 188.036 189.6C187.929 195.467 187.769 201.28 187.556 207.04C187.449 212.8 187.289 218.507 187.076 224.16C186.969 225.547 186.649 226.453 186.116 226.88C185.582 227.413 184.676 227.787 183.396 228C182.329 228 181.316 228 180.356 228C179.396 228.107 178.382 228.107 177.316 228C176.676 227.787 175.982 227.52 175.236 227.2C174.489 226.987 173.689 226.773 172.836 226.56C172.089 227.627 171.289 228.107 170.436 228C169.582 228 168.889 227.52 168.356 226.56C165.369 227.307 162.489 227.68 159.716 227.68C156.942 227.787 154.169 227.787 151.396 227.68C151.396 227.04 151.342 226.347 151.236 225.6C151.129 224.96 151.182 224.587 151.396 224.48Z" fill="#744848"/>
</g>
<defs>
<clipPath id="clip0_168_4">
<rect width="300" height="300" fill="white"/>
</clipPath>
</defs>
</svg>
